<svg xmlns="http://www.w3.org/2000/svg" viewBox="0 0 128 128" role="img" aria-labelledby="title desc">
  <title id="title">Youtom logo</title>
  <desc id="desc">A retro robot mascot with a play button and calendar body.</desc>
  <defs>
    <linearGradient id="metal" x1="31" y1="16" x2="99" y2="112" gradientUnits="userSpaceOnUse">
      <stop offset="0" stop-color="#fff4cf" />
      <stop offset="0.48" stop-color="#d8b36b" />
      <stop offset="1" stop-color="#7a4a22" />
    </linearGradient>
    <linearGradient id="red" x1="42" y1="51" x2="88" y2="91" gradientUnits="userSpaceOnUse">
      <stop offset="0" stop-color="#ff4b3e" />
      <stop offset="1" stop-color="#c9181d" />
    </linearGradient>
    <filter id="shadow" x="-20%" y="-20%" width="140%" height="145%">
      <feDropShadow dx="0" dy="6" stdDeviation="5" flood-color="#180b08" flood-opacity="0.28" />
    </filter>
  </defs>
  <rect width="128" height="128" rx="28" fill="#121a27" />
  <path d="M18 105c22 9 68 11 93-13v15c0 8-7 15-15 15H33c-8 0-15-7-15-15v-2Z" fill="#2b1426" opacity=".72" />
  <g filter="url(#shadow)">
    <path d="M37 41h54c7 0 12 5 12 12v38c0 7-5 12-12 12H37c-7 0-12-5-12-12V53c0-7 5-12 12-12Z" fill="url(#metal)" stroke="#f7d894" stroke-width="3" />
    <path d="M42 28h44c5 0 9 4 9 9v18H33V37c0-5 4-9 9-9Z" fill="url(#metal)" stroke="#f7d894" stroke-width="3" />
    <path d="M43 35h42c3 0 5 2 5 5v11H38V40c0-3 2-5 5-5Z" fill="#132238" opacity=".86" />
    <circle cx="51" cy="44" r="5" fill="#82d7ff" />
    <circle cx="77" cy="44" r="5" fill="#82d7ff" />
    <path d="M58 53h12" stroke="#2b1e19" stroke-width="4" stroke-linecap="round" />
    <path d="M28 58 15 49" stroke="#c98f44" stroke-width="7" stroke-linecap="round" />
    <circle cx="12" cy="47" r="8" fill="#f4d186" stroke="#7a4a22" stroke-width="3" />
    <path d="m100 58 14-9" stroke="#c98f44" stroke-width="7" stroke-linecap="round" />
    <circle cx="117" cy="47" r="8" fill="#f4d186" stroke="#7a4a22" stroke-width="3" />
    <path d="M45 103v12" stroke="#c98f44" stroke-width="8" stroke-linecap="round" />
    <path d="M83 103v12" stroke="#c98f44" stroke-width="8" stroke-linecap="round" />
    <rect x="40" y="59" width="48" height="34" rx="7" fill="#f6e4b3" stroke="#7a4a22" stroke-width="3" />
    <path d="M40 70h48" stroke="#7a4a22" stroke-width="3" />
    <path d="M51 79h5M63 79h5M75 79h5M51 88h5M63 88h5M75 88h5" stroke="#7a4a22" stroke-width="4" stroke-linecap="round" />
    <circle cx="64" cy="75" r="16" fill="url(#red)" />
    <path d="M59 66v18l15-9-15-9Z" fill="#fff7e6" />
    <path d="M48 29c2-9 8-14 16-14s14 5 16 14" fill="none" stroke="#f4d186" stroke-width="5" stroke-linecap="round" />
    <circle cx="64" cy="15" r="5" fill="#ff4b3e" />
  </g>
</svg>
